<?xml version="1.0" encoding="UTF-8" standalone="no"?>
<svg
   xmlns:dc="http://purl.org/dc/elements/1.1/"
   xmlns:cc="http://creativecommons.org/ns#"
   xmlns:rdf="http://www.w3.org/1999/02/22-rdf-syntax-ns#"
   xmlns:svg="http://www.w3.org/2000/svg"
   xmlns="http://www.w3.org/2000/svg"
   width="100"
   height="100"
   version="1.1">
  <path
     d="M 89.492234,99.492875 V 79.657062 l -9.87306,-6e-6 C 80.960677,79.585828 86.286891,67.62419 80.441491,50.93659 76.955568,40.984877 55.133771,20.49454 56.021563,18.390561 59.39373,15.806221 60.762563,11.342233 59.42438,7.2905382 58.086194,3.2388432 54.340308,0.50526223 50.119338,0.50006223 45.898373,0.49489123 41.91433,2.9646112 40.566453,7.0130142 c -1.347877,4.0484028 0.01008,8.5157328 3.604507,11.3887128 1.116028,2.38437 -21.126526,22.58315 -24.612451,32.534863 -5.845399,16.6876 -0.519187,28.649245 0.822316,28.720466 l -9.873059,6e-6 v 19.835776 z"
     id="main" />
</svg>
