<?xml version="1.0" encoding="UTF-8" standalone="no"?>
<svg
   xmlns:dc="http://purl.org/dc/elements/1.1/"
   xmlns:cc="http://creativecommons.org/ns#"
   xmlns:rdf="http://www.w3.org/1999/02/22-rdf-syntax-ns#"
   xmlns:svg="http://www.w3.org/2000/svg"
   xmlns="http://www.w3.org/2000/svg"
   version="1.1"
   height="100"
   width="100">
  <path
     id="main"
     d="m 65.140306,70.000003 a 5.0467689,5.0000009 0 0 0 -5.046768,5 h 2.523386 a 2.5233845,2.5000006 0 0 1 2.523382,-2.5 2.5233845,2.5000006 0 0 1 2.523386,2.5 h 2.523382 a 5.0467689,5.0000009 0 0 0 -5.046768,-5 z m -30.280611,0 a 5.0467689,5.0000009 0 0 0 -5.046769,5 h 2.523384 a 2.5233845,2.5000006 0 0 1 2.523385,-2.5 2.5233845,2.5000006 0 0 1 2.523384,2.5 h 2.523384 a 5.0467689,5.0000009 0 0 0 -5.046768,-5 z M 60.093538,80 a 10.093537,10.000002 0 0 1 -5.046769,8.660257 10.093537,10.000002 0 0 1 -10.093538,0 A 10.093537,10.000002 0 0 1 39.906463,80 H 50 Z" />
</svg>
