<?xml version="1.0" encoding="UTF-8" standalone="no"?>
<svg
   xmlns:dc="http://purl.org/dc/elements/1.1/"
   xmlns:cc="http://creativecommons.org/ns#"
   xmlns:rdf="http://www.w3.org/1999/02/22-rdf-syntax-ns#"
   xmlns:svg="http://www.w3.org/2000/svg"
   xmlns="http://www.w3.org/2000/svg"
   version="1.1"
   id="main"
   height="100"
   width="100">
  <path
     d="m 10.255425,79.999978 c 7.607269,-15.482082 11.027528,-14.83627 17.673526,-18.963822 12.985037,-8.064465 18.825614,-17.947617 18.85799,-19.425877 0.03229,-1.478264 -3.016433,-1.115859 -2.229989,-1.610287 0,0 -10.334619,12.999996 -24.315315,9.999996 -6.859305,7.047497 -5.383976,7.088534 -15.2394042,4.218664 C -2.2118889,52.117925 0.50132042,44.387749 4.7415063,39.169501 13.06771,28.922735 17.336582,24.316168 20.241637,19.999995 22.506981,16.782687 24.611605,13.717327 28.60609,11.717328 32.600575,9.7173285 40.214063,5e-7 40.214063,5e-7 L 45.207168,4.9999985 50.200272,5e-7 55.19338,4.9999985 c 7.072671,5.1821675 22.067552,13.3675465 30.218727,46.0417665 2.781132,11.148268 0.874587,20.544678 4.733015,28.958214 v 20.00002 l -79.889697,-3.8e-5 z"
     id="path1035" />
</svg>
