<?xml version="1.0" encoding="UTF-8" standalone="no"?>
<svg
   xmlns:dc="http://purl.org/dc/elements/1.1/"
   xmlns:cc="http://creativecommons.org/ns#"
   xmlns:rdf="http://www.w3.org/1999/02/22-rdf-syntax-ns#"
   xmlns:svg="http://www.w3.org/2000/svg"
   xmlns="http://www.w3.org/2000/svg"
   width="100"
   height="100"
   version="1.1"
   >
  <path id="main"
     d="m 89.991962,99.467211 v -19.76966 l -5.034658,-6e-6 4.07564,-31.022106 c 6.853787,0.92805 12.668616,-6.81542 9.686094,-12.992153 -2.4861,-6.633168 -12.653855,-7.750884 -16.581263,-1.845971 -2.417334,3.20002 -2.38854,7.89159 0.06709,11.062974 L 75.171183,49.131458 68.433518,18.76929 C 75.120282,16.789277 77.046256,7.2326287 71.606123,2.9035185 66.394873,-2.1097399 56.549204,1.3625258 55.786071,8.5098227 c -0.67411,3.9857543 1.601467,8.1870893 5.322417,9.8739143 L 49.71473,40.158265 C 46.255301,32.858159 42.795876,25.558052 39.336446,18.257945 45.591528,15.281806 46.000472,5.6193316 40.007821,2.1491808 34.168456,-2.004546 25.033909,2.6970383 25.205973,9.8046271 c -0.14438,4.0076259 2.61548,7.8601589 6.482661,9.0922089 l -7.147173,31.146246 c -2.154853,-1.588864 -4.309705,-3.177723 -6.464558,-4.766585 2.066478,-2.997625 2.112894,-7.147605 0.113655,-10.188984 -3.507455,-6.036285 -13.5296776,-5.6675 -16.5534977,0.628221 -3.7208919,6.190356 2.1277402,14.730097 9.3298967,13.731708 l 3.505197,30.250103 -5.0346536,5e-6 3e-7,19.769623 z"/>
</svg>
