<?xml version="1.0" encoding="UTF-8" standalone="no"?>
<svg
   xmlns:dc="http://purl.org/dc/elements/1.1/"
   xmlns:cc="http://creativecommons.org/ns#"
   xmlns:rdf="http://www.w3.org/1999/02/22-rdf-syntax-ns#"
   xmlns:svg="http://www.w3.org/2000/svg"
   xmlns="http://www.w3.org/2000/svg"
   id="svg82"
   width="100"
   height="100"
   version="1.1">
  <path
     d="m 56,85 a 6,8 0 0 1 -6,8 6,8 0 0 1 -6,-8 6,8 0 0 1 6,-8 6,8 0 0 1 6,8 z M 38.951325,75 A 3.9513247,4.0262299 0 0 1 35,79.02623 3.9513247,4.0262299 0 0 1 31.048675,75 3.9513247,4.0262299 0 0 1 35,70.97377 3.9513247,4.0262299 0 0 1 38.951325,75 Z M 68.98838,74.850189 a 4.1011353,4.1011353 0 0 1 -4.101135,4.101135 4.1011353,4.1011353 0 0 1 -4.101135,-4.101135 4.1011353,4.1011353 0 0 1 4.101135,-4.101135 4.1011353,4.1011353 0 0 1 4.101135,4.101135 z" />
</svg>
