<?xml version="1.0" encoding="UTF-8" standalone="no"?>
<svg
   xmlns:dc="http://purl.org/dc/elements/1.1/"
   xmlns:cc="http://creativecommons.org/ns#"
   xmlns:rdf="http://www.w3.org/1999/02/22-rdf-syntax-ns#"
   xmlns:svg="http://www.w3.org/2000/svg"
   xmlns="http://www.w3.org/2000/svg"
   id="svg82"
   width="100"
   height="100"
   version="1.1">
  <metadata
     id="metadata88">
    <rdf:RDF>
      <cc:Work
         rdf:about="">
        <dc:format>image/svg+xml</dc:format>
        <dc:type
           rdf:resource="http://purl.org/dc/dcmitype/StillImage" />
        <dc:title></dc:title>
      </cc:Work>
    </rdf:RDF>
  </metadata>
  <defs
     id="defs86" />
  <path
     d="m 68.98838,74.850189 a 4.1011353,4.1011353 0 0 1 -4.101135,4.101135 4.1011353,4.1011353 0 0 1 -4.101135,-4.101135 4.1011353,4.1011353 0 0 1 4.101135,-4.101135 4.1011353,4.1011353 0 0 1 4.101135,4.101135 z M 38.951325,75 A 3.9513247,4.0262299 0 0 1 35,79.02623 3.9513247,4.0262299 0 0 1 31.048675,75 3.9513247,4.0262299 0 0 1 35,70.97377 3.9513247,4.0262299 0 0 1 38.951325,75 Z m 21.142213,5 a 10.093537,10.000002 0 0 1 -5.046769,8.660257 10.093537,10.000002 0 0 1 -10.093538,0 A 10.093537,10.000002 0 0 1 39.906463,80 H 50 Z" />
</svg>
